<svg id="Layer_2" data-name="Layer 2" xmlns="http://www.w3.org/2000/svg" width="98.1" height="91.95" xmlns:xlink="http://www.w3.org/1999/xlink" viewBox="0 0 98.1 91.95">
  <defs>
    <linearGradient id="linear-gradient" x1="32.46" y1="2.6" x2="75.28" y2="74.52" gradientUnits="userSpaceOnUse">
      <stop offset=".07" stop-color="#00a750"/>
      <stop offset=".68" stop-color="#007c3f"/>
    </linearGradient>
  </defs>
  <g id="Layer_1-2" data-name="Layer 1">
    <path d="m49.09,19.26c.7-1.9,3.27-8.09,10-12,5.16-3,10.22-3.18,13-3,1.86.12,7.59.71,13,5,5.63,4.46,7.43,10.13,8,12,1.08,3.57,1.58,8.15,0,15-4.83,20.94-22.67,35.41-31,42-5.21,4.12-9.84,7.1-13,9-3.52-2.2-8.46-5.51-14-10-8.96-7.27-21.37-17.56-28-34-3.05-7.56-3.29-12.48-3-16,.22-2.73.77-8.47,5-14,4.25-5.56,9.71-7.56,11-8,1.88-.65,8-2.48,15,0,9.81,3.47,13.46,12.58,14,14Z" fill="url(#linear-gradient)" stroke="#fff" stroke-miterlimit="10" stroke-width="8"/>
  </g>
</svg>
